<svg height="309" width="428" xmlns="http://www.w3.org/2000/svg" xmlns:xlink="http://www.w3.org/1999/xlink"><clipPath id="a"><path d="m63 27h120v28h-120z"/></clipPath><clipPath id="b"><path d="m33 27h20v28h-20z"/></clipPath><clipPath id="c"><path d="m63 62h120v24h-120z"/></clipPath><clipPath id="d"><path d="m273 147h120v28h-120z"/></clipPath><clipPath id="e"><path d="m243 147h20v28h-20z"/></clipPath><clipPath id="f"><path d="m273 182h120v24h-120z"/></clipPath><clipPath id="g"><path d="m273 208h120v24h-120z"/></clipPath><clipPath id="h"><path d="m273 234h120v24h-120z"/></clipPath><clipPath id="i"><path d="m273 260h120v24h-120z"/></clipPath><clipPath id="j"><path d="m273 286h120v24h-120z"/></clipPath><clipPath id="k"><path d="m273 27h120v28h-120z"/></clipPath><clipPath id="l"><path d="m243 27h20v28h-20z"/></clipPath><clipPath id="m"><path d="m273 62h120v24h-120z"/></clipPath><clipPath id="n"><path d="m63 147h120v28h-120z"/></clipPath><clipPath id="o"><path d="m33 147h20v28h-20z"/></clipPath><clipPath id="p"><path d="m63 182h120v24h-120z"/></clipPath><clipPath id="q"><path d="m63 208h120v24h-120z"/></clipPath><clipPath id="r"><path d="m63 234h120v24h-120z"/></clipPath><clipPath id="s"><path d="m63 260h120v24h-120z"/></clipPath><g transform="translate(.5 .5)"><path d="m28 0h160v82h-160z" fill="#fff" pointer-events="none" stroke="#6c8ebf"/><path d="m28 26v-26h160v26z" fill="#e0e0e0" pointer-events="none" stroke="#6c8ebf" stroke-miterlimit="10"/><text font-family="Helvetica" font-size="14" text-anchor="middle" x="107.5" y="18.5">users</text><path d="m188 56h-160" fill="none" pointer-events="none" stroke="#000" stroke-miterlimit="10"/><g clip-path="url(#a)" font-family="Helvetica" font-size="12" font-weight="bold" text-decoration="underline"><text x="64.5" y="44.5">id</text></g><path d="m58 26v30m-30 0" fill="none" pointer-events="none" stroke="#000" stroke-miterlimit="10"/><g clip-path="url(#b)" font-family="Helvetica" font-size="12"><text x="34.5" y="44.5">PK</text></g><g clip-path="url(#c)" font-family="Helvetica" font-size="12"><text x="64.5" y="74.5">name</text></g><path d="m58 56v26m-30 0" fill="none" pointer-events="none" stroke="#000" stroke-miterlimit="10"/><path d="m238 120h160v186h-160z" fill="#fff" pointer-events="none" stroke="#6c8ebf"/><path d="m238 146v-26h160v26z" fill="#e0e0e0" pointer-events="none" stroke="#6c8ebf" stroke-miterlimit="10"/><text font-family="Helvetica" font-size="14" text-anchor="middle" x="317.5" y="138.5">products</text><path d="m398 176h-160" fill="none" pointer-events="none" stroke="#000" stroke-miterlimit="10"/><g clip-path="url(#d)" font-family="Helvetica" font-size="12" font-weight="bold" text-decoration="underline"><text x="274.5" y="164.5">id</text></g><path d="m268 146v30m-30 0" fill="none" pointer-events="none" stroke="#000" stroke-miterlimit="10"/><g clip-path="url(#e)" font-family="Helvetica" font-size="12"><text x="244.5" y="164.5">PK</text></g><g clip-path="url(#f)" font-family="Helvetica" font-size="12"><text x="274.5" y="194.5">shop_id</text></g><path d="m268 176v26m-30 0" fill="none" pointer-events="none" stroke="#000" stroke-miterlimit="10"/><g clip-path="url(#g)" font-family="Helvetica" font-size="12"><text x="274.5" y="220.5">name</text></g><path d="m268 202v26m-30 0" fill="none" pointer-events="none" stroke="#000" stroke-miterlimit="10"/><g clip-path="url(#h)" font-family="Helvetica" font-size="12"><text x="274.5" y="246.5">price</text></g><path d="m268 228v26m-30 0" fill="none" pointer-events="none" stroke="#000" stroke-miterlimit="10"/><g clip-path="url(#i)" font-family="Helvetica" font-size="12"><text x="274.5" y="272.5">started_at</text></g><path d="m268 254v26m-30 0" fill="none" pointer-events="none" stroke="#000" stroke-miterlimit="10"/><g clip-path="url(#j)" font-family="Helvetica" font-size="12"><text x="274.5" y="298.5">ended_at</text></g><path d="m268 280v26m-30 0" fill="none" pointer-events="none" stroke="#000" stroke-miterlimit="10"/><path d="m238 0h160v82h-160z" fill="#fff" pointer-events="none" stroke="#6c8ebf"/><path d="m238 26v-26h160v26z" fill="#e0e0e0" pointer-events="none" stroke="#6c8ebf" stroke-miterlimit="10"/><text font-family="Helvetica" font-size="14" text-anchor="middle" x="317.5" y="18.5">shops</text><path d="m398 56h-160" fill="none" pointer-events="none" stroke="#000" stroke-miterlimit="10"/><g clip-path="url(#k)" font-family="Helvetica" font-size="12" font-weight="bold" text-decoration="underline"><text x="274.5" y="44.5">id</text></g><path d="m268 26v30m-30 0" fill="none" pointer-events="none" stroke="#000" stroke-miterlimit="10"/><g clip-path="url(#l)" font-family="Helvetica" font-size="12"><text x="244.5" y="44.5">PK</text></g><g clip-path="url(#m)" font-family="Helvetica" font-size="12"><text x="274.5" y="74.5">name</text></g><path d="m268 56v26m-30 0" fill="none" pointer-events="none" stroke="#000" stroke-miterlimit="10"/><path d="m28 120h160v160h-160z" fill="#fff" pointer-events="none" stroke="#6c8ebf"/><path d="m28 146v-26h160v26z" fill="#e0e0e0" pointer-events="none" stroke="#6c8ebf" stroke-miterlimit="10"/><text font-family="Helvetica" font-size="14" text-anchor="middle" x="107.5" y="138.5">orders</text><path d="m188 176h-160" fill="none" pointer-events="none" stroke="#000" stroke-miterlimit="10"/><g clip-path="url(#n)" font-family="Helvetica" font-size="12" font-weight="bold" text-decoration="underline"><text x="64.5" y="164.5">id</text></g><path d="m58 146v30m-30 0" fill="none" pointer-events="none" stroke="#000" stroke-miterlimit="10"/><g clip-path="url(#o)" font-family="Helvetica" font-size="12"><text x="34.5" y="164.5">PK</text></g><g clip-path="url(#p)" font-family="Helvetica" font-size="12"><text x="64.5" y="194.5">user_id</text></g><path d="m58 176v26m-30 0" fill="none" pointer-events="none" stroke="#000" stroke-miterlimit="10"/><g clip-path="url(#q)" font-family="Helvetica" font-size="12"><text x="64.5" y="220.5">product_id</text></g><path d="m58 202v26m-30 0" fill="none" pointer-events="none" stroke="#000" stroke-miterlimit="10"/><g clip-path="url(#r)" font-family="Helvetica" font-size="12"><text x="64.5" y="246.5">count</text></g><path d="m58 228v26m-30 0" fill="none" pointer-events="none" stroke="#000" stroke-miterlimit="10"/><g clip-path="url(#s)" font-family="Helvetica" font-size="12"><text x="64.5" y="272.5">created_at</text></g><g pointer-events="none"><path d="m58 254v26m-30 0" fill="none" stroke="#000" stroke-miterlimit="10"/><path d="m28 41h-10q-10 0-10 10v128q0 10 10 10h10" fill="none" stroke="#000" stroke-miterlimit="10"/><path d="m24 45v-8m-4 8v-8" fill="none" stroke="#000" stroke-miterlimit="10"/><ellipse cx="16" cy="189" fill="#fff" rx="3" ry="3" stroke="#000"/><path d="m28 185-8 4 8 4" fill="none" stroke="#000" stroke-miterlimit="10"/><path d="m238 161h-20q-10 0-10 10v34q0 10-10 10h-10" fill="none" stroke="#000" stroke-miterlimit="10"/><path d="m234 165v-8m-4 8v-8" fill="none" stroke="#000" stroke-miterlimit="10"/><ellipse cx="200" cy="215" fill="#fff" rx="3" ry="3" stroke="#000"/><path d="m188 219 8-4-8-4" fill="none" stroke="#000" stroke-miterlimit="10"/><path d="m398 41h10q10 0 10 10v128q0 10-10 10h-10" fill="none" stroke="#000" stroke-miterlimit="10"/><path d="m402 37v8m4-8v8" fill="none" stroke="#000" stroke-miterlimit="10"/><ellipse cx="410" cy="189" fill="#fff" rx="3" ry="3" stroke="#000"/><path d="m398 193 8-4-8-4" fill="none" stroke="#000" stroke-miterlimit="10"/></g></g></svg>